<svg id="Layer_1" data-name="Layer 1" xmlns="http://www.w3.org/2000/svg" viewBox="0 0 44.94 42.43">
  <defs>
    <style>
      .cls-1 {
        fill: limegreen;
      }

      .cls-2 {
        fill: #fff;
      }
    </style>
  </defs>
  <circle class="cls-1" cx="18.07" cy="16.01" r="12.84" />
  <path class="cls-2"
    d="M15.37,11.63a1.07,1.07,0,1,1-1.07-1.07A1.1,1.1,0,0,1,15.37,11.63ZM14.74,14a.38.38,0,0,1,.44.44v6a.38.38,0,0,1-.44.44h-.86a.38.38,0,0,1-.44-.44v-6a.38.38,0,0,1,.44-.44Z" />
  <path class="cls-2"
    d="M18.78,15.09a2.57,2.57,0,0,1,2.4-1.26,2.64,2.64,0,0,1,2.73,2.94v3.71a.38.38,0,0,1-.44.44h-.86a.38.38,0,0,1-.44-.44V17c0-1-.54-1.7-1.52-1.7A1.54,1.54,0,0,0,19,17v3.44a.38.38,0,0,1-.44.44H17.7a.38.38,0,0,1-.44-.44v-6A.38.38,0,0,1,17.7,14h.65a.38.38,0,0,1,.44.44v.65Z" />
</svg>