<svg id="Layer_1" data-name="Layer 1" xmlns="http://www.w3.org/2000/svg" viewBox="0 0 43.65 56.17"><defs><style>.cls-1{fill:none;stroke:#5fbb46;stroke-miterlimit:10;stroke-width:0.75px;}.cls-2{fill:#5fbb46;}.cls-3{fill:#fff;}</style></defs><path class="cls-1" d="M24.62,29.8H11.07a2.24,2.24,0,0,1-2.24-2.24v-10a2.24,2.24,0,0,1,2.24-2.24H24.61a2.24,2.24,0,0,1,2.24,2.24v10A2.24,2.24,0,0,1,24.62,29.8Z"/><path class="cls-1" d="M19.15,31.45h7.29L20.27,37a.38.38,0,0,1-.55-.51l2.21-2.93L19,32.16A.37.37,0,0,1,19.15,31.45Z"/><line class="cls-1" x1="10.51" y1="19.86" x2="24.67" y2="19.86"/><line class="cls-1" x1="14.63" y1="21.92" x2="24.67" y2="21.92"/><circle class="cls-2" cx="26.6" cy="14.33" r="3.6"/><path class="cls-3" d="M27.93,15.75a.12.12,0,0,1,.14.14V16a.12.12,0,0,1-.14.14H26c-.09,0-.14,0-.14-.13v-.09a.28.28,0,0,1,.1-.23l1.13-1.2c.3-.31.44-.46.44-.75a.57.57,0,0,0-.65-.57,1.17,1.17,0,0,0-.74.26l-.06,0a.11.11,0,0,1-.1-.06l-.07-.09a.23.23,0,0,1,0-.09.11.11,0,0,1,.05-.09,1.46,1.46,0,0,1,1-.33,1,1,0,0,1,1.09,1,1.28,1.28,0,0,1-.45.89l-1,1.13h1.49Z"/><rect class="cls-2" x="8.22" y="38.69" width="19.31" height="0.51"/></svg>