<svg id="Layer_1" data-name="Layer 1" xmlns="http://www.w3.org/2000/svg" viewBox="0 0 44.43 45.45"><defs><style>.cls-1{fill:none;stroke:#8dccf0;stroke-miterlimit:10;}</style></defs><circle class="cls-1" cx="21.94" cy="10.13" r="4.16"/><circle class="cls-1" cx="33.37" cy="9.27" r="3.27"/><path class="cls-1" d="M29.31,34.29H14.92a.9.9,0,0,1-.9-.9V23.72a8.09,8.09,0,0,1,8.09-8.09h0a8.09,8.09,0,0,1,8.09,8.09v9.67A.89.89,0,0,1,29.31,34.29Z"/><path class="cls-1" d="M29.36,15.24h5.17A5.51,5.51,0,0,1,40,20.75V33.29a.61.61,0,0,1-.61.61"/><ellipse class="cls-1" cx="11.31" cy="10.23" rx="3.19" ry="3.27"/><path class="cls-1" d="M14.81,15.24h-5a5.44,5.44,0,0,0-5.36,5.51V33.29A.6.6,0,0,0,5,33.9"/></svg>