<svg id="Layer_1" data-name="Layer 1" xmlns="http://www.w3.org/2000/svg" viewBox="0 0 54.64 49.53"><defs><style>.cls-1{fill:none;}.cls-2{fill:#f1f1f2;}</style></defs><path class="cls-1" d="M14.94,13.07s-.1,6,3.48,9l12.93-9.4Z"/><path class="cls-1" d="M19.24,23l4.17-2.79L33,27.55S24.4,29.2,19.24,23Z"/><path class="cls-1" d="M24.28,19.52l9.65,7.42s4.76-1.34,6.45-5L29.91,15.23Z"/><path class="cls-1" d="M32.63,12.62l11.77-.11s-.18,5.93-3.09,8.26L30.74,14.43Z"/><path class="cls-2" d="M23.56,25.47a11.5,11.5,0,0,0,8.28,1.87S28.55,28.18,23.56,25.47Z"/><path class="cls-2" d="M15.29,13.67s.24,5.41,2.92,7.47l.05-1.1S15.8,19.26,15.29,13.67Z"/><polygon class="cls-2" points="32.49 25.18 33.84 26.47 35.39 26.03 33.95 25.99 32.49 25.18"/><path class="cls-2" d="M39.65,19.41l1.69,1s1.27-1.06,1.37-1.85l-1.5,1.27Z"/></svg>