<?xml version="1.0" encoding="utf-8"?>
<!-- Generator: Adobe Illustrator 24.3.0, SVG Export Plug-In . SVG Version: 6.00 Build 0)  -->
<svg version="1.1" id="Layer_1" xmlns="http://www.w3.org/2000/svg" xmlns:xlink="http://www.w3.org/1999/xlink" x="0px" y="0px"
	 viewBox="0 0 937.53 954.38" style="enable-background:new 0 0 937.53 954.38;" xml:space="preserve">
<style type="text/css">
	.st0{fill:#D894C0;}
	.st1{fill:#5FBB46;}
	.st2{fill:#F1F1F2;}
	.st3{fill:none;stroke:#5FBB46;stroke-width:0;stroke-miterlimit:10;}
	.st4{fill:#FFFFFF;}
	.st5{fill:none;stroke:#5FBB46;stroke-width:0.75;stroke-miterlimit:10;}
	.st6{fill:none;stroke:#60BB48;stroke-miterlimit:10;}
	.st7{fill:none;stroke:#A8A5A5;stroke-miterlimit:10;}
	.st8{fill:none;stroke:#A8A5A5;stroke-width:0.5;stroke-miterlimit:10;}
	.st9{fill:#A8A5A5;}
	.st10{fill:none;stroke:#D894C0;stroke-width:1.4;stroke-miterlimit:10;}
	.st11{fill:none;stroke:#D894C0;stroke-width:2;stroke-miterlimit:10;}
	.st12{fill:none;stroke:#8DCCF0;stroke-miterlimit:10;}
	.st13{fill:none;stroke:#FFFFFF;stroke-width:2;stroke-miterlimit:10;}
	.st14{fill:#CBDC36;}
	.st15{fill:#010101;}
	.st16{fill:#82B6E3;}
	.st17{fill:#C59C6D;stroke:#5C5C5B;stroke-miterlimit:10;}
	.st18{opacity:0.22;fill:#010101;}
	.st19{fill:none;stroke:#FFFFFF;stroke-width:2;stroke-linecap:round;stroke-miterlimit:10;}
	.st20{fill:none;stroke:#4B4D4D;stroke-miterlimit:10;}
	.st21{fill:#353635;}
	.st22{fill:#B1E1F1;}
	.st23{fill:none;stroke:#010101;stroke-miterlimit:10;}
	.st24{fill:#C59C6D;}
	.st25{fill:none;stroke:#010101;stroke-width:0.5;stroke-miterlimit:10;}
	.st26{fill:none;stroke:#FFFFFF;stroke-width:0.75;stroke-linecap:round;stroke-miterlimit:10;}
	.st27{fill:#60BA46;}
	.st28{fill:#60BA46;stroke:#60BA46;stroke-miterlimit:10;}
	.st29{opacity:0.63;}
	.st30{fill:none;stroke:#CBDC36;stroke-miterlimit:10;}
	.st31{fill:#CFDD34;}
	.st32{fill:none;stroke:#5FBB46;stroke-miterlimit:10;}
	.st33{fill:#010101;stroke:#5FBB46;stroke-linecap:round;stroke-miterlimit:10;}
	.st34{fill:#4CC5D9;}
	.st35{fill:#F9EE4E;}
	.st36{fill:#374C9F;}
	.st37{fill:#EFEDED;}
	.st38{fill:#3D6EB6;}
	.st39{fill:#065391;}
	.st40{fill:#BC3B96;}
	.st41{fill:#449BD5;}
	.st42{fill:none;stroke:#BC3B96;stroke-miterlimit:10;}
	.st43{fill:#BC3C96;}
	.st44{fill:#6EBE45;}
	.st45{fill:#D15FA4;}
	.st46{fill:none;stroke:#FFFFFF;stroke-width:0.5;stroke-miterlimit:10;}
</style>
<g>
	<g>
		<path class="st14" d="M780.51,353.52c37.16,178.53-82,161.8-260.52,198.96c-178.53,37.16-348.82,114.13-385.97-64.4
			s77.44-353.37,255.96-390.53S743.35,174.99,780.51,353.52z"/>
		<path class="st15" d="M355.6,402.67l-8.35,2.48c0,0-16.13-11.15-17.36-2.48c-1.23,8.67-21.05,3.72-11.14-8.67
			c9.91-12.39-12.18-8.67-12.9,0c-0.72,8.67-19.31-3.72-5.06-12.39c14.25-8.67,3.1-17.34-1.86-12.39s-24.78-6.19-9.91-11.15
			c14.87-4.96,3.72-14.87-1.24-9.91c-4.96,4.96-21.06-12.39-7.43-16.11c13.63-3.72-14.42,4.9-5.35-8.08
			c9.07-12.98-0.84-20.41,12.79-16.7s6.19,4.96,12.39-8.67c6.19-13.63-6.19-21.06,6.19-13.63c12.39,7.43,12.39,17.34,14.87,3.72
			c2.48-13.63,4.96-21.06,11.15-21.06s-6.19,7.43,1.24,13.63c7.43,6.19,4.96-11.15,13.63-13.63s-8.67,1.69,5.57,8.9
			c14.25,7.21,5.57,4.73,15.49-3.94c9.91-8.67,12.2-17.54,17.25-5.67c5.05,11.87,7.53,8.15,14.96,4.44
			c7.43-3.72,7.43-3.72,4.96,3.72c-2.48,7.43,16.11-7.43,22.3-11.15c6.19-3.72-1.24,4.96-2.48,11.15
			c-1.24,6.19,11.15-7.43,18.58-4.96c7.43,2.48,6.19-0.71,0,8.32s18.58-3.36,23.54-0.88c4.96,2.48-6.19,3.37-8.67,9.74
			c-2.48,6.37,11.15,1.41,17.34,7.6c6.19,6.19-1.24,6.19-8.67,4.96c-7.43-1.24,12.39,4.96,16.11,11.15s-4.88,10.75-12.97,4.76
			c-8.09-6,9.25,7.63,8.02,16.3c-1.24,8.67,0.07-1.08-8.02-3.02c-8.09-1.94-0.87,11.18,3.57,15.15s8.16,21.32-0.51,11.41
			c-8.67-9.91-19.82-12.57-14.87-5.05c4.96,7.53,4.96,11.58,0,12.65C453.78,364.26,355.6,402.67,355.6,402.67z"/>
		<path class="st16" d="M474.23,486.29c0,0,124.5,0.62,196.36,61.32s71.85,257.68-4.96,260.16c-76.81,2.48-113.97,4.96-113.97,4.96
			l-245.29,8.67c0,0-32.74-38.38-30.78-106c1.7-58.64,29.21-113.53,74.18-151.2c24.84-20.81,55.08-44.91,71.19-53.13
			C451.31,495.58,474.23,486.29,474.23,486.29z"/>
		<path class="st17" d="M411.68,483.9l9.27,27.16c0,0,34.69-6.19,53.27-24.78l-20.44-26.31L411.68,483.9z"/>
		<path class="st18" d="M427.78,474.75L427.78,474.75c16.01-3.66,32.8,0.31,45.48,10.74l0.96,0.79l-20.44-26.31L427.78,474.75z"/>
		<path class="st19" d="M376.98,459.98c0,0,15.59,69.07,64.47,83s61.6,30.94,61.6,30.94"/>
		<path class="st17" d="M352.82,374.79c0,0,1.24,112.74,73.09,109.02c0,0,73.09-17.34,32.21-100.35S352.82,374.79,352.82,374.79z"/>
		<path class="st20" d="M686.69,709.9c0,0-87.96,14.87-110.26,26.02"/>
		<path class="st20" d="M578.91,598.41c0,0,52.91,107.78,79.29,116.45"/>
		<path class="st14" d="M420.95,511.07l-14.25,8.72c0,0,51.65,17.68,89.01-32.38l-21.49-1.12
			C474.23,486.29,456.26,511.69,420.95,511.07z"/>
		<path class="st20" d="M347.24,618.77c0,0,11.58,14.33,8.58,35.08"/>
		<path class="st21" d="M747.52,807.41l-502.21,27.15c-3.08,0.17-5.72-2.2-5.88-5.28l-0.14-2.67c-0.17-3.08,2.2-5.72,5.28-5.88
			l502.21-27.15c3.08-0.17,5.72,2.2,5.88,5.28l0.14,2.67C752.97,804.61,750.61,807.24,747.52,807.41z"/>
		<path class="st14" d="M134.79,577.99c16.19,16.92,45.23,41.39,80.62,45.3c15.7,1.74,27.67,15.27,26.71,31.03
			c-0.95,15.54-9.29,33.01-37.96,42.57c-59.46,19.82-45.36-35.7-100.11-35.81c-46.22-0.1-53.89-59.64-11.73-87.73
			C105.74,564.42,123.64,566.34,134.79,577.99z"/>
		<circle class="st22" cx="370.78" cy="427.44" r="24.16"/>
		<circle class="st22" cx="430.25" cy="395.23" r="23.54"/>
		<path class="st23" d="M394.32,418.77c0,0,4.58-10.15,16.69-10.45"/>
		<polygon class="st15" points="352.82,388.92 418.2,345.18 418.2,352.65 448.34,367.05 432.72,329.58 352.82,347.59 347.24,381.61 
					"/>
		<path class="st24" d="M451.21,371.21c0,0,3.19-8.81,9.39-3.85c6.19,4.96,1.86,25.4,1.86,25.4L451.21,371.21z"/>
		<ellipse class="st4" cx="458.12" cy="376.65" rx="4.96" ry="6.81"/>
		<path class="st19" d="M458.12,383.47c0,0,27.25,13.63,16.11,67.52s-28.86,60.87,9.73,88.97c38.59,28.1,12.09,113.89,12.09,113.89"
			/>
		<path class="st21" d="M586.51,804.06L343.3,817.21c-6.88,0.37-12.76-4.91-13.14-11.79l-8.61-159.33
			c-0.37-6.88,4.91-12.76,11.79-13.14l243.21-13.15c6.88-0.37,12.76,4.91,13.14,11.79l8.61,159.33
			C598.67,797.81,593.39,803.69,586.51,804.06z"/>
		<polygon class="st18" points="352.82,388.92 414.3,351.44 414.3,356.5 448.34,367.05 418.2,352.65 418.2,345.18 		"/>
		<path class="st4" d="M458.12,274.47c0,0,29.81-11.94,12.43,10.12C470.55,284.6,486.61,265.83,458.12,274.47z"/>
		<g>
			<g>
				<path class="st4" d="M292.41,375.92c-0.99,3.1-1.82,6.25-2.45,9.44c-0.56,2.85-0.91,5.54,0.66,8.14
					c1.36,2.27,3.39,4.57,5.45,6.21c2.09,1.66,4.77,2.6,7.39,1.72c0.91-0.31,0.52-1.75-0.4-1.45c-2.61,0.88-5.1-0.45-6.96-2.24
					c-1.69-1.62-3.56-3.6-4.58-5.73c-1.19-2.46-0.33-5.34,0.22-7.86c0.58-2.65,1.29-5.26,2.12-7.85
					C294.15,375.39,292.7,375,292.41,375.92L292.41,375.92z"/>
			</g>
		</g>
		<g>
			<g>
				<path class="st4" d="M284.61,302.92c3.73-2.12,7.31-4.49,10.7-7.11c1.51-1.17,3.05-2.36,3.85-4.16
					c0.77-1.76,0.87-3.78,1.08-5.67c0.26-2.29,0.47-4.6,0.4-6.9c-0.03-1.01-0.11-2.03-0.26-3.03c-0.1-0.68-0.3-1.25-0.1-1.92
					c0.16-0.54,0.28-0.66,0.85-0.42c0.32,0.13,0.59,0.45,0.82,0.7c2.71,3.04,4,7.09,7.14,9.81c1.97,1.71,7.49,4.43,8.82,0.54
					c0.31-0.92-1.14-1.31-1.45-0.4c-0.66,1.94-4.21,0.28-5.23-0.39c-1.64-1.08-2.91-2.62-3.98-4.24c-1.16-1.74-2.15-3.58-3.37-5.28
					c-0.82-1.13-1.86-2.5-3.43-2.36c-1.39,0.12-2.05,1.23-1.85,2.54c0.34,2.3,0.62,4.48,0.53,6.81c-0.09,2.21-0.35,4.41-0.63,6.6
					c-0.29,2.24-0.95,3.96-2.7,5.46c-3.63,3.12-7.78,5.75-11.93,8.11C283.02,302.1,283.77,303.4,284.61,302.92L284.61,302.92z"/>
			</g>
		</g>
		<g>
			<g>
				<path class="st4" d="M351.62,271.13c4.3,0.83,8.79,1.58,13.14,0.72c4.17-0.82,7.04-3.37,9.46-6.72
					c2.08-2.88,5.25-8.32,9.61-7.19c3.8,0.98,1.53,6.76,4.16,8.96c1.77,1.48,4.69,0.82,6.75,0.43c2.85-0.55,5.57-1.59,8.08-3.02
					c0.84-0.48,0.08-1.77-0.76-1.3c-2.28,1.3-4.72,2.24-7.29,2.78c-1.9,0.4-5.47,1.35-6.46-0.96c-1.21-2.84,0-7-3.77-8.24
					c-3.7-1.22-7.11,1.75-9.2,4.44c-2.52,3.23-4.48,7.04-8.5,8.65c-4.68,1.88-10.05,0.92-14.84,0
					C351.07,269.5,350.67,270.95,351.62,271.13L351.62,271.13z"/>
			</g>
		</g>
		<g>
			<g>
				<path class="st4" d="M320.73,411.84c3.42-1.39,6.9-2.64,10.44-3.72c1.75-0.54,3.65-1.29,5.49-1.33
					c1.77-0.04,3.26,0.92,4.75,1.74c4.78,2.63,10.73,2.08,14.53-2.05c0.65-0.71-0.41-1.77-1.06-1.06c-1.92,2.08-4.61,3.27-7.45,3.29
					c-1.44,0.01-2.87-0.29-4.18-0.91c-1.29-0.61-2.46-1.43-3.79-1.96c-3.04-1.23-6.2,0.05-9.16,0.97c-3.38,1.05-6.7,2.25-9.98,3.58
					C319.45,410.76,319.83,412.21,320.73,411.84L320.73,411.84z"/>
			</g>
		</g>
		<path class="st18" d="M462.46,392.76c0,0,17.36,44.93-11.45,80.38C451,473.14,489.09,441.69,462.46,392.76z"/>
		<path class="st18" d="M420.95,511.07c0,0,16.37,0.71,27.39-5.22c0,0-43.46,8.9-20.56,16.97l-19.23-4.16L420.95,511.07z"/>
		<path class="st4" d="M404.23,462.57l41.63-22.46C445.86,440.11,440.78,483.44,404.23,462.57z"/>
		<path class="st14" d="M805.02,402.11c1.28,20.93-1.02,45-11.06,69.68c-8.51,20.92,10.39,42.92,32.27,37.35
			c20.44-5.21,42.52-16.74,58.58-40.88c19.42-29.17-4.47-62.44-33.45-88.55C832.8,362.99,803.49,377.18,805.02,402.11z"/>
		<path class="st18" d="M723.87,684.82c0,0-15.26,108.2-86,114.65l55.19-2.98C693.06,796.49,724.5,780.53,723.87,684.82z"/>
		<path class="st18" d="M579.53,599.03c0,0,56.25,108.54,99.67,112.18C679.19,711.21,631.84,746.45,579.53,599.03z"/>
		<path class="st25" d="M405.27,383.71c0,0,2.38-12.78,20.19-15.45"/>
		<line class="st26" x1="428.45" y1="383.47" x2="425.45" y2="405.96"/>
		<line class="st26" x1="434.64" y1="388.42" x2="431.65" y2="410.91"/>
		<line class="st26" x1="428.45" y1="383.47" x2="425.45" y2="405.96"/>
		<line class="st26" x1="434.64" y1="388.42" x2="431.65" y2="410.91"/>
		<line class="st26" x1="373.54" y1="412.36" x2="370.55" y2="434.86"/>
		<line class="st26" x1="379.74" y1="417.32" x2="376.74" y2="439.81"/>
	</g>
</g>
<g>
	<g>
		<path class="st27" d="M429.52,677.01c0.19,0.1,0.32,0.23,0.42,0.39c0.09,0.16,0.09,0.37-0.02,0.61l-2.47,3.95
			c-0.11,0.19-0.22,0.3-0.35,0.33c-0.13,0.03-0.3,0-0.49-0.11c-0.54-0.36-1.13-0.63-1.76-0.81c-0.64-0.18-1.3-0.25-2-0.21
			c-0.87,0.05-1.66,0.25-2.37,0.62c-0.71,0.37-1.32,0.85-1.81,1.45c-0.5,0.6-0.87,1.29-1.13,2.07c-0.25,0.78-0.36,1.6-0.31,2.46
			c0.05,0.87,0.24,1.67,0.58,2.41c0.34,0.74,0.78,1.38,1.34,1.91c0.56,0.54,1.21,0.95,1.96,1.24c0.75,0.29,1.55,0.41,2.42,0.36
			c0.7-0.04,1.36-0.18,1.98-0.43c0.62-0.25,1.18-0.59,1.68-1.01c0.18-0.13,0.34-0.18,0.47-0.17c0.13,0.02,0.26,0.1,0.4,0.27
			l2.92,3.75c0.13,0.23,0.15,0.42,0.08,0.58c-0.08,0.16-0.2,0.3-0.37,0.42c-0.96,0.72-2,1.29-3.13,1.72
			c-1.13,0.43-2.32,0.67-3.59,0.74c-1.12,0.06-2.2-0.02-3.25-0.25c-1.05-0.23-2.03-0.58-2.96-1.07c-0.93-0.48-1.78-1.07-2.55-1.76
			s-1.45-1.47-2.03-2.34c-0.58-0.87-1.04-1.8-1.38-2.82c-0.34-1.02-0.54-2.08-0.6-3.2c-0.06-1.12,0.02-2.2,0.25-3.25
			c0.23-1.05,0.58-2.03,1.06-2.97c0.48-0.93,1.07-1.79,1.76-2.57c0.69-0.78,1.48-1.45,2.35-2.03c0.87-0.57,1.81-1.03,2.83-1.38
			c1.02-0.35,2.08-0.55,3.2-0.61c1.27-0.07,2.47,0.04,3.62,0.34C427.4,675.95,428.49,676.4,429.52,677.01z"/>
		<path class="st27" d="M431.95,686.99c-0.06-1.12,0.02-2.2,0.25-3.25c0.23-1.05,0.58-2.03,1.06-2.97c0.48-0.93,1.07-1.79,1.76-2.57
			c0.69-0.78,1.48-1.45,2.35-2.03c0.87-0.57,1.81-1.03,2.83-1.38c1.02-0.35,2.08-0.55,3.21-0.61c1.11-0.06,2.19,0.03,3.24,0.26
			c1.05,0.23,2.04,0.59,2.97,1.06c0.93,0.48,1.78,1.06,2.56,1.76c0.78,0.7,1.46,1.49,2.03,2.36c0.57,0.88,1.03,1.82,1.38,2.84
			c0.35,1.02,0.55,2.08,0.61,3.2c0.06,1.12-0.03,2.2-0.26,3.25c-0.23,1.05-0.59,2.03-1.07,2.95c-0.48,0.92-1.06,1.77-1.76,2.54
			c-0.7,0.77-1.49,1.45-2.36,2.03c-0.87,0.58-1.82,1.04-2.84,1.38c-1.02,0.34-2.09,0.54-3.2,0.6c-1.12,0.06-2.2-0.02-3.25-0.25
			c-1.05-0.23-2.03-0.58-2.96-1.07c-0.93-0.48-1.78-1.07-2.55-1.76c-0.78-0.69-1.45-1.47-2.03-2.34c-0.58-0.87-1.04-1.8-1.38-2.82
			C432.21,689.18,432.01,688.11,431.95,686.99z M438.09,686.64c0.05,0.88,0.24,1.69,0.58,2.43c0.34,0.75,0.79,1.39,1.35,1.92
			s1.22,0.95,1.96,1.23c0.75,0.28,1.56,0.4,2.43,0.35c0.88-0.05,1.67-0.25,2.39-0.61c0.72-0.36,1.33-0.84,1.83-1.43
			c0.5-0.59,0.88-1.28,1.13-2.06c0.25-0.78,0.36-1.6,0.31-2.48c-0.05-0.87-0.24-1.67-0.58-2.42s-0.79-1.4-1.35-1.94
			c-0.56-0.54-1.22-0.96-1.97-1.24c-0.75-0.29-1.56-0.41-2.44-0.36c-0.88,0.05-1.67,0.25-2.38,0.62c-0.71,0.37-1.32,0.85-1.82,1.45
			c-0.5,0.6-0.88,1.29-1.14,2.07C438.14,684.95,438.04,685.78,438.09,686.64z"/>
		<path class="st28" d="M476.72,673.48c-0.01-0.22,0.04-0.4,0.15-0.54c0.11-0.14,0.28-0.21,0.5-0.23l15.73-0.85
			c0.23-0.01,0.42,0.05,0.55,0.18c0.13,0.13,0.21,0.31,0.22,0.54l0.21,3.92c0.01,0.18-0.04,0.35-0.16,0.52
			c-0.12,0.17-0.3,0.26-0.54,0.28l-10.27,0.56l0.21,3.93l7.93-0.43c0.2-0.01,0.37,0.03,0.51,0.11c0.14,0.09,0.21,0.24,0.22,0.47
			l0.19,3.42c0.01,0.15-0.04,0.29-0.15,0.44c-0.11,0.14-0.27,0.22-0.5,0.23l-7.94,0.43l0.22,4.06l10.65-0.58
			c0.48-0.03,0.73,0.2,0.75,0.69l0.22,3.98c0.01,0.11-0.03,0.2-0.11,0.29c-0.03,0.3-0.24,0.46-0.63,0.48l-16.03,0.87
			c-0.21,0.01-0.38-0.03-0.52-0.14c-0.13-0.1-0.2-0.27-0.22-0.5L476.72,673.48z"/>
		<path class="st27" d="M515.08,672.39c0.19,0.1,0.32,0.23,0.42,0.39c0.09,0.16,0.09,0.37-0.02,0.61l-2.47,3.95
			c-0.11,0.19-0.22,0.3-0.35,0.33c-0.13,0.03-0.3,0-0.49-0.11c-0.54-0.36-1.13-0.63-1.76-0.81c-0.64-0.18-1.3-0.25-2-0.21
			c-0.87,0.05-1.66,0.25-2.37,0.62c-0.71,0.37-1.32,0.85-1.81,1.45c-0.5,0.6-0.87,1.29-1.13,2.07c-0.25,0.78-0.36,1.6-0.31,2.46
			s0.24,1.67,0.58,2.41c0.34,0.74,0.78,1.38,1.34,1.91c0.56,0.54,1.21,0.95,1.96,1.24c0.75,0.29,1.55,0.41,2.42,0.36
			c0.7-0.04,1.36-0.18,1.98-0.43c0.62-0.25,1.18-0.59,1.68-1.01c0.18-0.13,0.34-0.18,0.47-0.17c0.13,0.02,0.26,0.1,0.4,0.27
			l2.92,3.75c0.13,0.23,0.15,0.42,0.08,0.58c-0.08,0.16-0.2,0.3-0.37,0.42c-0.96,0.72-2,1.29-3.13,1.72
			c-1.13,0.43-2.32,0.67-3.59,0.74c-1.12,0.06-2.2-0.02-3.25-0.25c-1.05-0.23-2.03-0.58-2.96-1.07c-0.93-0.48-1.78-1.07-2.55-1.76
			c-0.77-0.69-1.45-1.47-2.03-2.34c-0.58-0.87-1.04-1.8-1.38-2.82c-0.34-1.02-0.54-2.08-0.6-3.2c-0.06-1.12,0.02-2.2,0.25-3.25
			c0.23-1.05,0.58-2.03,1.06-2.97c0.48-0.93,1.07-1.79,1.76-2.57c0.69-0.78,1.48-1.45,2.35-2.03c0.87-0.57,1.81-1.03,2.83-1.38
			s2.08-0.55,3.2-0.61c1.27-0.07,2.47,0.04,3.62,0.34C512.96,671.32,514.05,671.77,515.08,672.39z"/>
		<path class="st27" d="M518.11,671.2c-0.01-0.21,0.05-0.38,0.19-0.52c0.14-0.13,0.31-0.21,0.52-0.22l17.06-0.92
			c0.19-0.01,0.36,0.04,0.52,0.15c0.15,0.11,0.25,0.28,0.28,0.51l0.21,3.94c0.01,0.19-0.05,0.38-0.17,0.56
			c-0.12,0.18-0.31,0.28-0.55,0.29l-5.47,0.3l0.94,17.36c0.01,0.19-0.05,0.37-0.18,0.53c-0.13,0.16-0.3,0.25-0.53,0.26l-4.65,0.25
			c-0.18,0.01-0.35-0.05-0.52-0.19c-0.17-0.13-0.25-0.31-0.26-0.52l-0.94-17.36l-5.45,0.29c-0.21,0.01-0.39-0.05-0.54-0.18
			c-0.15-0.13-0.23-0.33-0.25-0.59L518.11,671.2z"/>
		<polygon class="st27" points="466.23,666.3 467.9,697.18 470.47,697.04 469.51,679.25 470.39,679.2 471.35,696.99 472.4,696.94 
			472.02,689.88 472.69,689.84 473.07,696.9 473.99,696.85 472.32,665.97 		"/>
		<polygon class="st27" points="457.8,666.76 459.47,697.64 461.93,697.5 460.96,679.61 461.85,679.56 462.82,697.45 463.91,697.4 
			463.57,691.12 464.06,691.1 464.4,697.37 465.57,697.31 463.9,666.43 		"/>
	</g>
	<g>
		<g>
			<path class="st27" d="M447.48,701.25c0,0,0.04,8.91,5.47,13.3l18.97-14.4L447.48,701.25z"/>
			<path class="st27" d="M454.19,715.85l6.12-4.29l14.47,10.7C474.79,722.27,462.06,724.99,454.19,715.85z"/>
			<path class="st27" d="M461.6,710.57l14.61,10.75c0,0,7.06-2.15,9.46-7.68l-15.8-9.64L461.6,710.57z"/>
			<path class="st27" d="M473.81,700.03l17.54-0.53c0,0-0.08,8.84-4.35,12.4l-15.94-9.12L473.81,700.03z"/>
		</g>
		<path class="st4" d="M460.71,719.46c0,0,5.32,3.89,12.39,2.53C473.1,721.99,468.22,723.34,460.71,719.46z"/>
		<path class="st4" d="M448.01,702.13c0,0,0.53,8.05,4.59,11.04l0.04-1.63C452.64,711.54,448.95,710.45,448.01,702.13z"/>
		<polygon class="st4" points="473.99,718.74 476.04,720.63 478.34,719.92 476.2,719.91 		"/>
		<path class="st4" d="M484.48,709.92l2.54,1.39c0,0,1.86-1.63,1.99-2.8l-2.2,1.94L484.48,709.92z"/>
	</g>
	<circle class="st27" cx="444.08" cy="686.31" r="4.33"/>
</g>
<path class="st19" d="M700.38,558.76c0,0,42.23,54.87,38.4,133.66"/>
<path class="st14" d="M443.44,851.07l248.64-13.44c4.12-0.22,7.73,4.53,8.06,10.62l1.08,19.92c0.33,6.09-2.75,11.2-6.87,11.43
	l-248.64,13.44c-4.12,0.22-7.73-4.53-8.06-10.62l-1.08-19.92C436.24,856.41,439.32,851.3,443.44,851.07z"/>
<polygon class="st14" points="545.59,785.51 612.48,883.38 564.66,851.75 "/>
<g class="st29">
	<path class="st15" d="M472.43,876.77c-0.71,1.66-2.17,2.73-4.33,2.85c-3,0.16-4.93-1.87-5.1-5l-0.38-7
		c-0.01-0.27,0.12-0.45,0.42-0.47l0.55-0.03c0.3-0.02,0.46,0.15,0.47,0.42l0.36,6.75c0.14,2.53,1.5,4.18,3.93,4.04
		c2.66-0.14,3.92-2.13,3.79-4.46l-0.37-6.75c-0.01-0.27,0.12-0.45,0.42-0.47l0.55-0.03c0.3-0.02,0.46,0.15,0.47,0.42l0.62,11.49
		c0.02,0.3-0.12,0.48-0.42,0.5l-0.42,0.02c-0.3,0.02-0.46-0.15-0.47-0.45L472.43,876.77z"/>
	<path class="st15" d="M479.78,872.25c-1.5-0.49-2.55-1.55-2.63-2.99c-0.11-2.01,1.44-3.24,3.83-3.37c1.44-0.08,2.88,0.32,3.95,1.33
		c0.08,0.07,0.11,0.14,0.11,0.22c0.01,0.12-0.06,0.25-0.15,0.36l-0.21,0.26c-0.09,0.13-0.21,0.19-0.34,0.19
		c-0.07,0-0.18-0.04-0.28-0.13c-0.84-0.75-1.85-1.14-3-1.08c-1.66,0.09-2.61,0.94-2.55,2.15c0.06,1.09,0.91,1.64,1.82,1.94
		l2.38,0.74c1.97,0.62,3.09,1.38,3.19,3.34c0.13,2.38-1.55,3.54-4.23,3.69c-1.74,0.07-3.49-0.48-4.61-1.84
		c-0.11-0.14-0.19-0.26-0.2-0.39c-0.01-0.1,0.04-0.2,0.16-0.33l0.26-0.29c0.1-0.08,0.19-0.13,0.29-0.14
		c0.12-0.01,0.23,0.06,0.33,0.16c1.03,1.11,2.18,1.7,3.72,1.62c1.79-0.1,2.91-0.88,2.83-2.39c-0.08-1.49-1.02-1.89-2.47-2.33
		L479.78,872.25z"/>
	<path class="st15" d="M499.6,875.21c0.15,0.09,0.24,0.21,0.24,0.31c0,0.07-0.04,0.18-0.11,0.28c-1.19,1.48-3.14,2.29-5.02,2.39
		c-3.67,0.2-6.53-2.41-6.73-6.16c-0.2-3.75,2.35-6.65,6.03-6.85c3.47-0.19,6.06,2.56,6.25,6.03l0.01,0.2
		c0.02,0.3-0.12,0.45-0.42,0.47l-10.37,0.56c0.15,1.34,0.69,2.55,1.73,3.44c0.96,0.77,2.23,1.12,3.47,1.06
		c1.54-0.08,3-0.71,4.01-1.88c0.09-0.1,0.19-0.16,0.31-0.17c0.1-0.01,0.2,0.04,0.3,0.11L499.6,875.21z M498.8,870.89
		c-0.12-1.26-0.61-2.56-1.6-3.4c-0.84-0.78-1.96-1.21-3.12-1.15c-1.24,0.07-2.43,0.58-3.28,1.47c-0.92,0.97-1.35,2.24-1.37,3.58
		L498.8,870.89z"/>
	<path class="st15" d="M504.67,867.22c0.67-1.48,2.06-2.5,4.31-2.62c0.2-0.01,0.4-0.02,0.57,0.02c0.2,0.06,0.28,0.18,0.29,0.36
		c0,0.05,0.01,0.12-0.01,0.2l-0.1,0.38c-0.08,0.28-0.21,0.33-0.4,0.35c-0.12,0.01-0.35-0.03-0.57-0.02
		c-2.88,0.16-3.92,2.03-3.8,4.24l0.36,6.75c0.02,0.3-0.12,0.45-0.42,0.47l-0.55,0.03c-0.3,0.02-0.45-0.12-0.47-0.42l-0.62-11.52
		c-0.02-0.3,0.12-0.45,0.42-0.47l0.42-0.02c0.3-0.02,0.45,0.12,0.47,0.42L504.67,867.22z"/>
	<path class="st15" d="M513.33,866.75c0.73-1.66,2.24-2.73,4.45-2.85c3.1-0.17,5.05,1.87,5.22,4.99l0.38,6.97
		c0.02,0.3-0.12,0.48-0.42,0.5l-0.55,0.03c-0.3,0.02-0.46-0.15-0.47-0.45l-0.36-6.73c-0.14-2.53-1.55-4.17-4.05-4.04
		c-2.73,0.15-4.04,2.14-3.92,4.47l0.36,6.73c0.02,0.3-0.12,0.48-0.42,0.5l-0.55,0.03c-0.3,0.02-0.46-0.15-0.47-0.45l-0.62-11.49
		c-0.01-0.27,0.12-0.45,0.42-0.47l0.42-0.02c0.3-0.02,0.46,0.15,0.47,0.42L513.33,866.75z"/>
	<path class="st15" d="M536.43,873.74c-0.89,1.57-2.51,2.33-4.52,2.44c-2.75,0.15-4.95-1.35-5.09-3.88
		c-0.14-2.56,2.01-4.27,4.84-4.42c1.89-0.1,2.84,0.07,4.35,0.39l-0.06-0.57c-0.16-2.13-1.49-3.55-3.99-3.42
		c-1.42,0.05-2.71,0.47-3.86,1.28c-0.1,0.08-0.17,0.11-0.24,0.11c-0.12,0.01-0.23-0.06-0.33-0.21l-0.16-0.22
		c-0.05-0.07-0.08-0.14-0.09-0.22c-0.01-0.15,0.08-0.28,0.25-0.41c1.17-0.96,2.84-1.4,4.38-1.48c3.28-0.18,5.32,1.7,5.47,4.51
		l0.4,7.45c0.02,0.3-0.12,0.48-0.42,0.5l-0.37,0.02c-0.3,0.02-0.46-0.15-0.47-0.45L536.43,873.74z M536.07,869.33
		c-1.47-0.39-2.46-0.46-4.08-0.38c-2.18,0.12-3.86,1.4-3.76,3.26c0.1,1.81,1.83,2.94,3.86,2.83c2.43-0.13,4.2-1.55,4.08-3.76
		L536.07,869.33z"/>
	<path class="st15" d="M542.71,865.16c0.73-1.66,2.12-2.73,4.3-2.82c1.17-0.06,2.3,0.15,3.21,0.87c0.65,0.51,1.08,1.16,1.4,1.92
		c0.66-2.03,2.24-3.18,4.45-3.3c2.95-0.16,4.86,1.88,5.03,5.01l0.38,6.97c0.02,0.3-0.12,0.48-0.42,0.5l-0.55,0.03
		c-0.3,0.02-0.46-0.15-0.47-0.45l-0.36-6.73c-0.14-2.53-1.47-4.18-3.85-4.05c-2.68,0.14-3.87,2.03-3.74,4.46l0.36,6.73
		c0.02,0.3-0.12,0.48-0.42,0.5l-0.55,0.03c-0.3,0.02-0.46-0.15-0.47-0.45l-0.36-6.73c-0.14-2.53-1.4-4.18-3.88-4.05
		c-2.71,0.15-3.89,2.23-3.77,4.46l0.36,6.73c0.02,0.3-0.12,0.48-0.42,0.5l-0.55,0.03c-0.3,0.02-0.46-0.15-0.47-0.45l-0.62-11.49
		c-0.01-0.27,0.12-0.45,0.42-0.47l0.42-0.02c0.3-0.02,0.46,0.15,0.47,0.42L542.71,865.16z"/>
	<path class="st15" d="M575.87,871.08c0.15,0.09,0.24,0.21,0.24,0.31c0,0.07-0.04,0.18-0.11,0.28c-1.19,1.48-3.14,2.29-5.02,2.39
		c-3.67,0.2-6.53-2.41-6.73-6.16s2.35-6.65,6.03-6.85c3.47-0.19,6.06,2.56,6.25,6.03l0.01,0.2c0.02,0.3-0.12,0.45-0.42,0.47
		l-10.37,0.56c0.15,1.34,0.69,2.55,1.73,3.44c0.96,0.77,2.23,1.12,3.47,1.06c1.54-0.08,3-0.71,4.01-1.88
		c0.09-0.1,0.19-0.16,0.31-0.17c0.1-0.01,0.2,0.04,0.3,0.11L575.87,871.08z M575.06,866.77c-0.12-1.26-0.61-2.56-1.6-3.4
		c-0.84-0.78-1.96-1.21-3.12-1.15c-1.24,0.07-2.43,0.58-3.28,1.47c-0.92,0.97-1.35,2.24-1.37,3.58L575.06,866.77z"/>
	<path class="st15" d="M581.29,872.86c-0.14,0.26-0.28,0.36-0.6,0.38l-0.5,0.03c-0.2,0.01-0.33-0.11-0.34-0.26
		c0-0.05,0.02-0.1,0.04-0.15l8.38-17.11c0.13-0.28,0.28-0.36,0.58-0.38l0.52-0.03c0.2-0.01,0.3,0.08,0.31,0.23
		c0,0.05-0.02,0.1-0.04,0.18L581.29,872.86z"/>
	<path class="st15" d="M604.18,869.55c0.13,0.12,0.19,0.21,0.19,0.31c0.01,0.12-0.06,0.25-0.18,0.38c-1.12,1.43-2.99,2.18-4.78,2.27
		c-3.75,0.2-6.68-2.4-6.88-6.15c-0.2-3.75,2.43-6.65,6.18-6.86c1.79-0.1,3.71,0.47,5,1.75c0.13,0.12,0.21,0.24,0.22,0.36
		c0.01,0.1-0.04,0.23-0.18,0.33l-0.26,0.26c-0.1,0.08-0.19,0.13-0.29,0.14c-0.12,0.01-0.23-0.04-0.33-0.13
		c-1.1-1.04-2.57-1.53-4.09-1.45c-2.93,0.16-4.96,2.56-4.8,5.51s2.44,5.12,5.37,4.96c1.51-0.08,2.92-0.73,3.9-1.9
		c0.09-0.13,0.21-0.19,0.31-0.19c0.1-0.01,0.2,0.04,0.31,0.13L604.18,869.55z"/>
	<path class="st15" d="M619.14,864.93c0.2,3.75-2.45,6.65-6.3,6.86c-3.82,0.21-6.8-2.4-7-6.14s2.48-6.66,6.3-6.86
		C615.99,858.58,618.94,861.19,619.14,864.93z M617.7,865.01c-0.16-2.98-2.47-5.14-5.5-4.98c-3,0.16-5.09,2.57-4.93,5.54
		c0.16,2.98,2.49,5.14,5.5,4.98C615.8,870.39,617.86,867.99,617.7,865.01z"/>
	<path class="st15" d="M624.19,870.41c0.02,0.3-0.12,0.48-0.42,0.5l-0.55,0.03c-0.3,0.02-0.46-0.15-0.47-0.45l-0.94-17.37
		c-0.01-0.27,0.05-0.43,0.32-0.49l0.66-0.21c0.05-0.03,0.1-0.03,0.15-0.03c0.17-0.01,0.28,0.13,0.29,0.36L624.19,870.41z"/>
	<path class="st15" d="M630,870.1c0.02,0.3-0.12,0.48-0.42,0.5l-0.55,0.03c-0.3,0.02-0.46-0.15-0.47-0.45l-0.94-17.37
		c-0.01-0.27,0.05-0.43,0.32-0.49l0.66-0.21c0.05-0.03,0.1-0.03,0.15-0.03c0.17-0.01,0.28,0.13,0.29,0.36L630,870.1z"/>
	<path class="st15" d="M644.61,867.37c0.15,0.09,0.24,0.21,0.24,0.31c0,0.07-0.04,0.18-0.11,0.28c-1.19,1.48-3.14,2.29-5.02,2.39
		c-3.67,0.2-6.53-2.41-6.73-6.16c-0.2-3.75,2.35-6.65,6.03-6.85c3.47-0.19,6.06,2.56,6.25,6.03l0.01,0.2
		c0.02,0.3-0.12,0.45-0.42,0.47l-10.37,0.56c0.15,1.34,0.69,2.55,1.73,3.44c0.96,0.77,2.23,1.12,3.47,1.06
		c1.54-0.08,3-0.71,4.01-1.88c0.09-0.1,0.19-0.16,0.31-0.17c0.1-0.01,0.2,0.04,0.3,0.11L644.61,867.37z M643.81,863.05
		c-0.12-1.26-0.61-2.56-1.6-3.4c-0.84-0.78-1.96-1.21-3.12-1.15c-1.24,0.07-2.43,0.58-3.28,1.47c-0.92,0.97-1.35,2.24-1.37,3.58
		L643.81,863.05z"/>
	<path class="st15" d="M659.16,866.58c0.13,0.12,0.19,0.21,0.19,0.31c0.01,0.12-0.06,0.25-0.18,0.38c-1.12,1.43-2.99,2.18-4.78,2.27
		c-3.75,0.2-6.68-2.4-6.88-6.15s2.43-6.65,6.18-6.86c1.79-0.1,3.71,0.47,5,1.75c0.13,0.12,0.21,0.24,0.22,0.36
		c0.01,0.1-0.04,0.23-0.18,0.33l-0.26,0.26c-0.1,0.08-0.19,0.13-0.29,0.14c-0.12,0.01-0.23-0.04-0.33-0.13
		c-1.1-1.04-2.57-1.53-4.09-1.45c-2.93,0.16-4.96,2.56-4.8,5.51c0.16,2.95,2.44,5.12,5.37,4.96c1.51-0.08,2.92-0.73,3.9-1.9
		c0.09-0.13,0.21-0.19,0.31-0.19c0.1-0.01,0.2,0.04,0.31,0.13L659.16,866.58z"/>
	<path class="st15" d="M662.28,852.17c-0.01-0.27,0.05-0.43,0.32-0.52l0.64-0.18c0.05-0.03,0.1-0.03,0.15-0.03
		c0.17-0.01,0.28,0.13,0.29,0.36l0.24,4.49l3.5-0.19c0.27-0.01,0.45,0.12,0.47,0.42l0.01,0.25c0.02,0.3-0.15,0.46-0.42,0.47
		l-3.5,0.19l0.38,7c0.11,1.99,0.97,3.26,2.51,3.17c0.6-0.03,1.16-0.16,1.7-0.39c0.05-0.03,0.1-0.03,0.15-0.03
		c0.15-0.01,0.25,0.09,0.34,0.23l0.17,0.34c0.03,0.07,0.06,0.15,0.06,0.2c0.01,0.15-0.08,0.28-0.25,0.39
		c-0.68,0.36-1.52,0.51-2.24,0.54c-2.26,0.07-3.72-1.52-3.86-4.1l-0.39-7.27l-1.76,0.1c-0.3,0.02-0.48-0.12-0.5-0.42l-0.01-0.25
		c-0.02-0.3,0.15-0.46,0.45-0.47l1.79-0.1L662.28,852.17z"/>
</g>
<g>
	<g>
		<path class="st19" d="M583.94,287.06c0,0,0.19,46.02,28.24,68.65l97.93-74.35L583.94,287.06z"/>
		<path class="st19" d="M618.61,362.46l31.62-22.15l74.71,55.26C724.93,395.57,659.25,409.62,618.61,362.46z"/>
		<path class="st19" d="M656.84,335.17l75.44,55.48c0,0,36.43-11.09,48.83-39.67l-81.57-49.79L656.84,335.17z"/>
		<path class="st19" d="M719.9,280.78l90.54-2.75c0,0-0.4,45.63-22.48,64l-82.32-47.06L719.9,280.78z"/>
	</g>
	<path class="st19" d="M652.24,381.07c0,0,27.48,20.07,63.97,13.07C716.21,394.13,691.01,401.08,652.24,381.07z"/>
	<path class="st19" d="M586.72,291.58c0,0,2.75,41.56,23.69,57.02l0.19-8.44C610.59,340.16,591.55,334.54,586.72,291.58z"/>
	<polygon class="st19" points="720.83,377.36 731.42,387.11 743.27,383.46 732.21,383.39 	"/>
	<path class="st19" d="M775,331.82l13.12,7.16c0,0,9.6-8.39,10.27-14.46l-11.35,9.99L775,331.82z"/>
</g>
<g>
	<g>
		<path class="st26" d="M192.06,212.13c0,0,0.1,23.21,14.25,34.63l49.4-37.51L192.06,212.13z"/>
		<path class="st26" d="M209.55,250.16l15.95-11.17l37.69,27.88C263.19,266.87,230.05,273.96,209.55,250.16z"/>
		<path class="st26" d="M228.83,236.4l38.06,27.99c0,0,18.38-5.6,24.64-20.01l-41.15-25.12L228.83,236.4z"/>
		<path class="st26" d="M260.65,208.96l45.67-1.39c0,0-0.2,23.02-11.34,32.29l-41.53-23.74L260.65,208.96z"/>
	</g>
	<path class="st26" d="M226.51,259.55c0,0,13.86,10.12,32.27,6.59C258.79,266.15,246.07,269.65,226.51,259.55z"/>
	<path class="st26" d="M193.46,214.41c0,0,1.39,20.97,11.95,28.76l0.1-4.26C205.5,238.92,195.9,236.08,193.46,214.41z"/>
	<polygon class="st26" points="261.12,257.68 266.46,262.6 272.44,260.76 266.86,260.72 	"/>
	<path class="st26" d="M288.45,234.71l6.62,3.61c0,0,4.84-4.23,5.18-7.29l-5.73,5.04L288.45,234.71z"/>
</g>
<g>
	<g>
		<path class="st26" d="M123.05,816.38c0,0-12.51,23.03-4.71,42.01l69.26-10.29L123.05,816.38z"/>
		<path class="st26" d="M119.7,863.52l21.85-2.4l22.16,48.06C163.71,909.18,127.07,898.2,119.7,863.52z"/>
		<path class="st26" d="M146.26,860.37l22.46,48.37c0,0,21.22,4.44,35.25-6.43l-27.09-47.2L146.26,860.37z"/>
		<path class="st26" d="M192.64,850.49l45.95,23.43c0,0-12.7,22.67-28.75,25.79l-28.2-46.05L192.64,850.49z"/>
	</g>
	<path class="st26" d="M131.39,882.02c0,0,8.22,17.55,28.36,24.05C159.75,906.07,145.26,902.64,131.39,882.02z"/>
	<path class="st26" d="M123.19,819.4c0,0-10.01,21.5-3.79,34.95l2.41-4.16C121.8,850.19,113.84,842.17,123.19,819.4z"/>
	<polygon class="st26" points="166.65,898.96 169.26,906.73 176.18,908.15 170.68,905.09 	"/>
	<path class="st26" d="M206.17,891.07l4.59,7.17c0,0,7.09-1.56,9.09-4.4l-8.41,1.88L206.17,891.07z"/>
</g>
<g>
	<g>
		<path class="st30" d="M893.93,682.05c0,0-13.99-24.64-35.88-28.33l-30.13,69.46L893.93,682.05z"/>
		<path class="st30" d="M852.57,652.04l-10.29,21.43l-56.78-7.12C785.5,666.35,816.51,638.99,852.57,652.04z"/>
		<path class="st30" d="M840.28,678.23l-57.24-7.02c0,0-16.21,16.95-14.24,36.03l58.81,2.11L840.28,678.23z"/>
		<path class="st30" d="M822.84,726.45l-47.77,28.8c0,0-13.56-24.61-7.25-41.14l58.39,0.42L822.84,726.45z"/>
	</g>
	<path class="st30" d="M828.9,652.2c0,0-20.81-2.48-38.28,12.29C790.61,664.49,802.04,653.16,828.9,652.2z"/>
	<path class="st30" d="M891.07,680.46c0,0-14.02-21.48-29.92-23.46l2.44,4.59C863.6,661.59,875.52,658.86,891.07,680.46z"/>
	<polygon class="st30" points="793.2,674.89 784.57,672.85 779.31,678.39 785.27,675.09 	"/>
	<path class="st30" d="M777.86,715.68l-9.2,0.11c0,0-2.62,7.4-1.15,10.86l3.08-8.79L777.86,715.68z"/>
</g>
<g>
	<polygon class="st19" points="789.96,177.81 756.29,221.09 753.04,243.17 774.17,235.27 809.84,194.77 	"/>
	<line class="st19" x1="756.29" y1="221.09" x2="774.17" y2="235.27"/>
</g>
</svg>
