<svg id="Layer_1" data-name="Layer 1" xmlns="http://www.w3.org/2000/svg" viewBox="0 0 47.38 47.49"><defs><style>.cls-1{fill:#5fbb46;}.cls-2{fill:#f1f1f2;}</style></defs><path class="cls-1" d="M9.85,17.79s-.1,6,3.48,9l12.93-9.4Z"/><path class="cls-1" d="M14.15,27.68l4.17-2.79,9.56,7.38S19.31,33.92,14.15,27.68Z"/><path class="cls-1" d="M19.19,24.24l9.65,7.42s4.76-1.34,6.45-5L24.82,20Z"/><path class="cls-1" d="M27.54,17.34l11.77-.11s-.18,5.93-3.09,8.26L25.65,19.15Z"/><path class="cls-2" d="M18.47,30.19a11.5,11.5,0,0,0,8.28,1.87S23.46,32.89,18.47,30.19Z"/><path class="cls-2" d="M10.2,18.38s.24,5.41,2.92,7.47l.05-1.1S10.71,24,10.2,18.38Z"/><polygon class="cls-2" points="27.4 29.89 28.75 31.19 30.3 30.75 28.86 30.71 27.4 29.89"/><path class="cls-2" d="M34.56,24.12l1.69,1s1.27-1.06,1.37-1.85l-1.5,1.27Z"/></svg>