<?xml version="1.0" encoding="utf-8"?>
<!-- Generator: Adobe Illustrator 24.3.0, SVG Export Plug-In . SVG Version: 6.00 Build 0)  -->
<svg version="1.1" id="Layer_1" xmlns="http://www.w3.org/2000/svg" xmlns:xlink="http://www.w3.org/1999/xlink" x="0px" y="0px"
	 viewBox="0 0 885.5 952.85" style="enable-background:new 0 0 885.5 952.85;" xml:space="preserve">
<style type="text/css">
	.st0{fill:#D894C0;}
	.st1{fill:#5FBB46;}
	.st2{fill:#F1F1F2;}
	.st3{fill:none;stroke:#5FBB46;stroke-width:0;stroke-miterlimit:10;}
	.st4{fill:#FFFFFF;}
	.st5{fill:none;stroke:#5FBB46;stroke-width:0.75;stroke-miterlimit:10;}
	.st6{fill:none;stroke:#60BB48;stroke-miterlimit:10;}
	.st7{fill:none;stroke:#A8A5A5;stroke-miterlimit:10;}
	.st8{fill:none;stroke:#A8A5A5;stroke-width:0.5;stroke-miterlimit:10;}
	.st9{fill:#A8A5A5;}
	.st10{fill:none;stroke:#D894C0;stroke-width:1.4;stroke-miterlimit:10;}
	.st11{fill:none;stroke:#D894C0;stroke-width:2;stroke-miterlimit:10;}
	.st12{fill:none;stroke:#8DCCF0;stroke-miterlimit:10;}
	.st13{fill:none;stroke:#FFFFFF;stroke-width:2;stroke-miterlimit:10;}
	.st14{fill:#CBDC36;}
	.st15{fill:#010101;}
	.st16{fill:#82B6E3;}
	.st17{fill:#C59C6D;stroke:#5C5C5B;stroke-miterlimit:10;}
	.st18{opacity:0.22;fill:#010101;}
	.st19{fill:none;stroke:#FFFFFF;stroke-width:2;stroke-linecap:round;stroke-miterlimit:10;}
	.st20{fill:none;stroke:#4B4D4D;stroke-miterlimit:10;}
	.st21{fill:#353635;}
	.st22{fill:#B1E1F1;}
	.st23{fill:none;stroke:#010101;stroke-miterlimit:10;}
	.st24{fill:#C59C6D;}
	.st25{fill:none;stroke:#010101;stroke-width:0.5;stroke-miterlimit:10;}
	.st26{fill:none;stroke:#FFFFFF;stroke-width:0.75;stroke-linecap:round;stroke-miterlimit:10;}
	.st27{fill:#60BA46;}
	.st28{fill:#60BA46;stroke:#60BA46;stroke-miterlimit:10;}
	.st29{opacity:0.63;}
	.st30{fill:none;stroke:#CBDC36;stroke-miterlimit:10;}
	.st31{fill:#CFDD34;}
	.st32{fill:none;stroke:#5FBB46;stroke-miterlimit:10;}
	.st33{fill:#010101;stroke:#5FBB46;stroke-linecap:round;stroke-miterlimit:10;}
	.st34{fill:#4CC5D9;}
	.st35{fill:#F9EE4E;}
	.st36{fill:#374C9F;}
	.st37{fill:#EFEDED;}
	.st38{fill:#3D6EB6;}
	.st39{fill:#065391;}
	.st40{fill:#BC3B96;}
	.st41{fill:#449BD5;}
	.st42{fill:none;stroke:#BC3B96;stroke-miterlimit:10;}
	.st43{fill:#BC3C96;}
	.st44{fill:#6EBE45;}
	.st45{fill:#D15FA4;}
	.st46{fill:none;stroke:#FFFFFF;stroke-width:0.5;stroke-miterlimit:10;}
</style>
<rect class="st0" width="885.5" height="952.85"/>
<g>
	<g>
		<g>
			<path class="st4" d="M490.57,350.53c-3.46-14.16-6.8-28.48-7.7-43.07c-0.43-7.08-0.31-14.24,0.77-21.26
				c0.96-6.27,2.53-12.61,5.39-18.3c4.36-8.68,14.21-18.86,24.76-13.53c3.93,1.99,7.47,5.72,8.21,10.19
				c0.8,4.84-2.78,8.73-7.27,9.91c-12.34,3.22-21.52-10.02-27.4-18.75c-7.02-10.41-12.51-21.94-15.56-34.14
				c-2.92-11.68-3.5-24.06-0.46-35.78c3.04-11.72,9.67-22.05,18.33-30.41c19.33-18.64,45.88-26,71.45-31.43
				c3.47-0.74,6.94-1.44,10.42-2.15c1.89-0.39,1.09-3.28-0.8-2.89c-27.82,5.67-56.94,11.87-79.18,30.73
				c-9.62,8.16-17.45,18.5-21.63,30.47c-4.26,12.19-4.49,25.41-1.99,37.99c2.6,13.08,8.09,25.58,15.27,36.78
				c3.54,5.52,7.44,11.09,12.16,15.67c4.43,4.3,10.07,7.6,16.42,7.37c5.46-0.2,10.9-3.05,12.78-8.43c1.64-4.7-0.43-9.77-3.57-13.32
				c-3.34-3.77-8.4-6.42-13.51-6.25c-5.69,0.18-11.03,3.44-14.84,7.49c-9.26,9.84-12.18,24.54-12.84,37.58
				c-0.78,15.29,1.93,30.55,5.3,45.4c0.83,3.67,1.71,7.32,2.6,10.97C488.14,353.2,491.03,352.41,490.57,350.53L490.57,350.53z"/>
		</g>
	</g>
	<g>
		<g>
			<path class="st4" d="M799.12,484.46c-7.99,11.78-16.4,24.22-29.11,31.35c-11.28,6.32-25.99,7.86-36.17-1.38
				c-4.86-4.42-7.97-10.61-7.39-17.27c-0.37,0.48-0.73,0.96-1.1,1.45c2.36-0.97,4.71-1.99,7.1-2.91c1.46-0.56,3.09,0.22,4.28,1.14
				c2.43,1.87,3.77,5.09,3.98,8.09c0.56,8.02-6.71,13.72-12.85,17.47c-15.32,9.37-32.73,15.69-50.46,18.48
				c-17.6,2.77-35.94,1.86-52.95-3.61c-14.66-4.71-28.2-12.91-39.23-23.64c-10.93-10.64-19.42-23.87-23.68-38.56
				c-0.54-1.86-1-3.73-1.41-5.62c-0.41-1.89-3.3-1.09-2.89,0.8c3.42,15.89,11.6,30.45,22.68,42.27
				c11.13,11.87,25.16,21.02,40.46,26.54c17.55,6.33,36.66,7.64,55.07,5.13c18.77-2.56,37.2-9.11,53.42-18.89
				c6.74-4.06,14.28-9.98,14.83-18.51c0.22-3.48-0.8-7.16-2.89-9.96c-1.83-2.44-5.74-5.43-8.95-4.11c-2.44,1-4.88,2-7.32,3
				c-0.67,0.28-1.04,0.72-1.1,1.45c-1.14,13.1,10.34,24.5,22.73,26.46c15.23,2.42,29.58-5.99,39.67-16.73
				c6-6.39,10.95-13.67,15.86-20.91C802.8,484.37,800.2,482.87,799.12,484.46L799.12,484.46z"/>
		</g>
	</g>
	<g>
		<g>
			<path class="st4" d="M585.35,804.33c-17.96-3-35.98-6.1-53.4-11.49c-16.65-5.15-33.22-12.56-46.54-24.02
				c-11.71-10.08-20.77-23.48-25.49-38.22c-4.49-14.04-4.91-29.72,1.44-43.28c3.37-7.19,8.47-14,15.59-17.8
				c7-3.73,15.19-3.26,21.87,0.96c6.44,4.08,10.18,11.12,9.7,18.75c-0.47,7.54-4.82,14.69-11.61,18.12
				c-7.66,3.86-17.2,2.79-24.64-1.04c-7.78-4-13.7-10.82-18.24-18.16c-9.55-15.43-14.56-33.79-14.45-51.92
				c0.11-17.31,5.1-34.34,14.98-48.61c9-13,21.81-23.61,36.57-29.4c3.62-1.42,7.35-2.55,11.14-3.39c1.88-0.42,1.09-3.31-0.8-2.89
				c-16.39,3.62-31.27,12.83-42.46,25.27c-11.86,13.17-19.29,29.62-21.61,47.17c-2.52,19.07,0.88,38.77,9.09,56.13
				c7.58,16.04,20.93,32.67,40.41,32.23c8.56-0.2,16.54-4.29,20.99-11.71c4.07-6.78,4.92-15.45,1.67-22.72
				c-3.26-7.31-10.56-12.62-18.38-13.99c-8.45-1.48-16.53,1.88-22.65,7.65c-11.76,11.1-16.22,28.38-14.68,44.1
				c1.58,16.16,8.7,31.5,18.89,44.02c11.26,13.82,26.71,23.38,43.03,30.14c17.59,7.29,36.34,11.31,55.02,14.65
				c4.58,0.82,9.17,1.59,13.76,2.36C586.44,807.54,587.26,804.65,585.35,804.33L585.35,804.33z"/>
		</g>
	</g>
	<g>
		<g>
			<path class="st4" d="M181.46,744.86c2.75-14.25,7.89-27.97,15.08-40.57c7.16-12.55,16.3-23.93,27.03-33.6
				c5.36-4.83,11.12-9.22,17.21-13.08c5.85-3.72,12.15-6.72,18.93-8.27c6.08-1.39,12.89-1.64,18.6,1.24
				c6.79,3.43,10.18,10.42,11.37,17.66c1.19,7.25,0.12,15.66-4.82,21.4c-4.32,5.02-11.66,7.91-18.09,5.53
				c-3.63-1.34-6.44-4.27-8.85-7.19c-2.56-3.09-4.91-6.38-7.09-9.74c-4.36-6.71-8.04-13.88-10.86-21.37
				c-5.51-14.65-7.88-30.65-5.74-46.21c1.97-14.33,7.61-28.25,16.46-39.72c8.9-11.54,21.03-20.3,35.03-24.49
				c14.03-4.21,29.44-3.99,43.14,1.37c3.3,1.29,6.46,2.92,9.47,4.8c1.64,1.03,3.15-1.57,1.51-2.59
				c-13.19-8.25-29.16-10.93-44.46-8.77c-15.3,2.16-29.49,9.36-40.4,20.27c-10.78,10.78-18.28,24.72-21.93,39.48
				c-3.9,15.78-3.2,32.41,1.19,48.02c2.29,8.15,5.57,16.03,9.64,23.44c2.01,3.66,4.22,7.21,6.61,10.63
				c2.37,3.39,4.86,6.81,7.77,9.75c2.73,2.76,6.06,5.08,9.93,5.83c3.47,0.68,7.1,0.27,10.38-1.03c7.3-2.89,12.12-9.37,13.78-16.95
				c1.7-7.76,0.61-16.61-3.24-23.6c-3.47-6.29-9.6-10.38-16.67-11.42c-14.53-2.12-28.68,5.73-40,13.97
				c-12.3,8.96-23.02,19.97-31.74,32.44c-8.74,12.5-15.44,26.48-19.59,41.16c-1.01,3.57-1.86,7.17-2.56,10.81
				C178.21,745.94,181.1,746.75,181.46,744.86L181.46,744.86z"/>
		</g>
	</g>
	<g>
		<g>
			<path class="st4" d="M278.78,208.07c-12.87,9.43-23.17,22.04-30.28,36.29c-7.06,14.16-11.02,29.87-11.43,45.7
				c-0.41,16.12,2.91,32.53,10.46,46.85c7.52,14.28,20.37,27.23,37.19,28.75c14.93,1.35,31.64-6.78,34.2-22.78
				c1.36-8.54-1.89-17.34-9.53-21.81c-6.3-3.68-14.21-3.36-19.87,1.35c-5.09,4.24-7.38,11.02-8.2,17.4
				c-0.95,7.38,0.14,14.64,2.27,21.73c4.81,16.04,14.07,30.67,26.28,42.11c12.67,11.86,28.45,20.06,45.51,23.34
				c18.06,3.46,37.12,1.68,54.17-5.24c4.12-1.67,8.1-3.64,11.94-5.88c0.83-0.49,0.08-1.78-0.76-1.3
				c-15.38,9.02-33.31,13.28-51.1,12.56c-17.09-0.69-33.76-6.1-47.85-15.81c-13.27-9.14-24.11-21.75-31.24-36.2
				c-6.29-12.76-10.98-28.32-6.07-42.32c2.07-5.89,6.24-11.05,12.56-12.46c8.2-1.83,16.63,3.66,19.47,11.31
				c2.97,8.01,0.55,17.31-5.21,23.44c-4.9,5.21-11.86,8.15-18.89,8.96c-7.42,0.86-14.86-0.58-21.43-4.12
				c-7.22-3.89-13.16-9.83-17.77-16.57c-8.88-12.95-13.47-28.74-14.44-44.33c-0.94-15.19,1.54-30.53,7.01-44.73
				c5.47-14.21,14-27.3,25.11-37.75c2.75-2.58,5.65-4.99,8.69-7.22C280.3,208.8,279.56,207.5,278.78,208.07L278.78,208.07z"/>
		</g>
	</g>
	<g>
		<g>
			<path class="st4" d="M260.27,506.09c-12.56,4.6-25.83,9.44-39.44,8.23c-10.58-0.94-20.64-6.75-25.79-16.21
				c-2.65-4.87-3.52-10.46-1.88-15.8c-0.35,0.35-0.7,0.7-1.05,1.05c3.46-0.93,6.22,1.79,7.95,4.48c1.98,3.06,3,6.54,3.87,10.05
				c1.81,7.26,2.59,14.88,1.67,22.33c-0.85,6.92-3.41,13.8-8.32,18.87c-5.35,5.53-12.74,8.16-20.34,8.26
				c-15.82,0.2-30.62-8.56-41.65-19.28c-10.76-10.45-18.73-23.68-23.27-37.96c-4.55-14.31-5.74-29.76-2.75-44.52
				c0.37-1.81,0.8-3.61,1.29-5.39c0.51-1.87-2.39-2.66-2.89-0.8c-5.71,20.96-3.07,43.59,6.03,63.2
				c9.07,19.53,25.36,37.32,45.98,44.66c10.48,3.74,22.75,4.73,32.82-0.78c9.3-5.09,14.5-14.76,15.95-25.01
				c0.75-5.29,0.67-10.64-0.02-15.93c-0.69-5.26-1.76-10.72-3.86-15.62c-1.89-4.39-5.4-9.51-10.67-9.78c-1.08-0.06-2.83,0-3.46,1.01
				c-0.63,1-0.74,2.6-0.91,3.75c-0.36,2.62-0.24,5.26,0.32,7.84c2.28,10.48,11.27,18.82,21.06,22.48
				c12.96,4.85,27.68,1.42,40.32-2.76c3.31-1.1,6.59-2.28,9.86-3.48C262.87,508.33,262.09,505.43,260.27,506.09L260.27,506.09z"/>
		</g>
	</g>
	<polygon class="st4" points="777.14,463.23 832.5,414.56 828.57,490.59 805.41,474.97 810.7,457.42 799.43,472.43 	"/>
	<polygon class="st4" points="588.97,85.8 667.99,127 580.54,155.71 588.06,122.8 610.16,121.11 588.32,114.94 	"/>
	<polygon class="st13" points="601.63,792.35 646.47,837.08 581.06,837.98 593.15,817.25 608.5,820.8 595,811.98 	"/>
	<polygon class="st13" points="258.89,175.92 337.78,134.47 311.54,222.69 288.77,197.75 299.98,178.63 282.47,193.06 	"/>
	<polygon class="st2" points="211.45,765.66 159.22,837.86 143.51,747.17 174.98,759.39 173.44,781.5 182.71,760.79 	"/>
	<polygon class="st2" points="77.15,434.17 116.32,354.13 147.26,440.81 114.16,434.14 111.9,412.09 106.3,434.08 	"/>
	<path class="st4" d="M656.79,865.82l13.31-37.51c1.87-5.28,7.68-8.05,12.96-6.17l24.98,8.86c5.28,1.87,8.05,7.68,6.17,12.96
		l-13.31,37.51c-1.87,5.28-7.68,8.05-12.96,6.17l-24.98-8.86C657.68,876.9,654.92,871.1,656.79,865.82z"/>
	<polygon class="st0" points="632,845.58 651,852.58 636,862.58 	"/>
	<g>
		<g>
			<path class="st4" d="M717.23,193.6l-32.44-19.38c-10.54-6.3-13.98-19.95-7.68-30.49l19.38-32.44
				c6.3-10.54,19.95-13.98,30.49-7.68l32.44,19.38c10.54,6.3,13.98,19.95,7.68,30.49l-19.38,32.44
				C741.42,196.46,727.77,199.9,717.23,193.6z"/>
			<circle class="st0" cx="721.4" cy="148.56" r="18.3"/>
			<circle class="st0" cx="753.66" cy="138.72" r="4.35"/>
		</g>
	</g>
	<g>
		<g>
			<path class="st4" d="M388.7,99.92c7.76-17.71-0.31-38.36-18.02-46.11c-17.71-7.76-38.36,0.31-46.11,18.02
				c-1.43,3.26-2.31,6.61-2.71,9.97l-17.98,14.04l23.7,9.55c3.58,5.35,8.68,9.78,15.01,12.55
				C360.29,125.69,380.94,117.63,388.7,99.92z M344.63,112.66c-5.26-2.31-9.49-5.98-12.47-10.43l-19.7-7.94l14.94-11.67
				c0.33-2.79,1.07-5.58,2.25-8.28c6.45-14.72,23.6-21.42,38.32-14.97c14.72,6.45,21.42,23.6,14.97,38.32
				C376.5,112.4,359.34,119.11,344.63,112.66z"/>
			<path class="st4" d="M312.46,94.3l14.94-11.67c0,0-3.72-28.62,29.38-28.56c33.1,0.06,30.1,35.33,30.1,35.33l-6.21,18.97
				l-17.55,9.89l-24.23-4.73L312.46,94.3z"/>
			<g>
				<path class="st0" d="M361.92,101.8c-0.23-1.47-0.59-2.96-1.05-4.46c-0.13-1.22-0.53-2.17-1.2-2.83
					c-0.05-0.04-0.27-0.24-0.66-0.59c-0.4-0.35-1.32-0.37-2.76-0.07c-0.82,0.15-1.54-0.07-2.14-0.66c-0.32-0.31-0.58-0.74-0.8-1.3
					c-1.66-3.69-1.81-7.42-0.45-11.2c0.17-0.65,0.46-1.19,0.87-1.6c0.11-0.11,0.33-0.29,0.66-0.54c0.33-0.24,0.97-0.25,1.92-0.02
					c0.59,0.12,1.15,0.16,1.7,0.12c0.54-0.04,1.07-0.32,1.58-0.84c0.35-0.48,0.66-1.39,0.92-2.74c0.78-4.31,0.64-6.99-0.42-8.03
					c-0.26-0.25-0.57-0.46-0.94-0.62c-2.95-1.38-5.32-1.16-7.09,0.65c-0.56,0.57-1.04,1.33-1.44,2.27
					c-4.29,11.24-3.95,22.54,1.05,33.87c0.13,0.55,0.41,1.04,0.83,1.45c0.95,0.93,2.2,1.51,3.76,1.75c2.38,0.31,4.09-0.07,5.14-1.13
					C362.05,104.59,362.24,103.43,361.92,101.8z"/>
			</g>
		</g>
	</g>
	<circle class="st4" cx="414.5" cy="470.08" r="139"/>
	<polygon class="st0" points="382.12,487.87 414.96,405.03 452.52,489.06 419.01,484.97 415.05,463.16 411.17,485.51 	"/>
	<g>
		<path class="st0" d="M362.97,509.6c5.66,1.97,6.96,4.32,6.96,8.45c0,5.27-4.99,8.02-11.72,8.02c-3.15-0.04-6.25-0.75-8.96-2.4
			c-0.67-0.39-1.73-1.02-2.08-1.85c-0.08-0.2-0.12-0.43-0.12-0.63c0-0.43,0.24-0.86,0.51-1.3l1.69-2.4
			c0.43-0.55,0.87-0.87,1.34-0.87c0.31,0,0.63,0.12,0.94,0.35c2.01,1.49,4.17,2.2,6.68,2.2c2.01,0,3.54-0.35,3.54-1.53
			c0-0.71-0.39-1.34-1.49-1.73l-5.66-2.04c-4.99-1.81-7.08-4.6-7.08-8.14c0-4.4,4.29-8.14,10.89-8.14c2.63-0.04,5.27,0.43,7.71,1.49
			c1.06,0.43,1.97,1.02,1.97,1.93c0,0.35-0.16,0.79-0.55,1.3l-1.77,2.28c-0.39,0.59-0.87,0.94-1.45,0.94c-0.24,0-0.51-0.04-0.79-0.2
			c-1.61-0.71-3.34-1.18-5.15-1.18c-2.04,0-2.87,0.67-2.87,1.57c0,0.87,0.71,1.53,2.32,2.08L362.97,509.6z"/>
		<path class="st0" d="M381.33,523.68c0,1.34-0.59,1.93-1.93,1.93h-4.01c-1.34,0-1.93-0.59-1.93-1.93v-23.67
			c0-1.34,0.59-1.93,1.93-1.93h4.01c1.34,0,1.93,0.59,1.93,1.93v8.34h9.83v-8.34c0-1.34,0.59-1.93,1.93-1.93h4.01
			c1.34,0,1.93,0.59,1.93,1.93v23.67c0,1.34-0.59,1.93-1.93,1.93h-4.01c-1.34,0-1.93-0.59-1.93-1.93v-8.53h-9.83V523.68z"/>
		<path class="st0" d="M409.68,524.07c-0.43,1.18-0.94,1.53-2.2,1.53h-4.64c-0.94,0-1.45-0.47-1.45-1.18c0-0.2,0.04-0.43,0.16-0.71
			l9.83-24.1c0.47-1.18,1.02-1.53,2.28-1.53h4.56c1.26,0,1.81,0.35,2.28,1.53l9.83,24.1c0.12,0.28,0.16,0.51,0.16,0.71
			c0,0.71-0.51,1.18-1.45,1.18h-4.64c-1.26,0-1.77-0.35-2.2-1.53l-0.75-2.12l-10.97-0.04L409.68,524.07z M415.93,506.85l-3.03,8.3
			h6.05L415.93,506.85z"/>
		<path class="st0" d="M444.56,517.03c-0.31,0-0.67,0-1.06,0h-2.01v6.64c0,1.34-0.59,1.93-1.93,1.93h-4.01
			c-1.34,0-1.93-0.59-1.93-1.93v-23.67c0-1.34,0.59-1.93,1.93-1.93h8.96c5.11,0,12.31,1.26,12.31,9.12c0,3.54-1.49,6.8-4.76,8.34
			l4.4,8.26c0.12,0.28,0.2,0.55,0.2,0.79c0,0.59-0.47,1.02-1.3,1.02h-4.72c-1.3,0-1.81-0.31-2.4-1.45L444.56,517.03z M445.11,511.21
			c2.32,0,4.13-0.87,4.13-3.22c0-2.56-1.81-3.5-4.13-3.5h-3.62v6.72H445.11z"/>
		<path class="st0" d="M468.7,508.74h8.1c1.34,0,1.93,0.59,1.93,1.93v2.56c0,1.34-0.59,1.93-1.93,1.93h-8.1V519h11.44
			c1.34,0,1.93,0.59,1.93,1.93v2.75c0,1.34-0.59,1.93-1.93,1.93h-17.18c-1.34,0-1.93-0.59-1.93-1.93v-23.67
			c0-1.34,0.59-1.93,1.93-1.93h16.79c1.34,0,1.93,0.59,1.93,1.93v2.75c0,1.34-0.59,1.93-1.93,1.93H468.7V508.74z"/>
	</g>
	<polygon class="st0" points="678.5,846.08 696.5,852.08 681.8,864.58 	"/>
	<g>
		<defs>
			<path id="SVGID_1_" d="M106.59,858.52c-0.39-2.6-4.32-8.81-0.97-14.17c3.36-5.36,6.64-14.94,6.64-14.94s14.42-3.73,15.68-4.19
				c1.26-0.46,29.92,7.75,29.92,7.75s16.4,22.3,17.59,23.18s-6.76,22.78-7.53,23.6c-0.78,0.81-22.59,11.55-24.31,10.74
				C141.89,889.69,106.59,858.52,106.59,858.52z"/>
		</defs>
		<clipPath id="SVGID_2_">
			<use xlink:href="#SVGID_1_"  style="overflow:visible;"/>
		</clipPath>
	</g>
</g>
</svg>
