<svg id="Layer_1" data-name="Layer 1" xmlns="http://www.w3.org/2000/svg" viewBox="0 0 40.34 45.45"><defs><style>.cls-1,.cls-2{fill:none;stroke:#a8a5a5;stroke-miterlimit:10;}.cls-2{stroke-width:0.5px;}</style></defs><path class="cls-1" d="M27.71,19.67V9.32a1.13,1.13,0,0,0-1.13-1.13H10.36A1.66,1.66,0,0,0,8.7,9.85V23.53A1.5,1.5,0,0,0,10.2,25h9.28a.63.63,0,0,0,.63-.63"/><circle class="cls-1" cx="25.54" cy="23.95" r="4.89"/><polyline class="cls-1" points="25.54 20.07 25.54 23.95 28.8 23.95"/><path class="cls-2" d="M11.92,14.17h-.47a.58.58,0,0,1-.58-.58v-.47a.58.58,0,0,1,.58-.58h.47a.58.58,0,0,1,.58.58v.47A.58.58,0,0,1,11.92,14.17Z"/><path class="cls-2" d="M25,14.17h-.47a.58.58,0,0,1-.58-.58v-.47a.58.58,0,0,1,.58-.58H25a.58.58,0,0,1,.58.58v.47A.58.58,0,0,1,25,14.17Z"/><path class="cls-2" d="M20.61,14.17h-.47a.58.58,0,0,1-.58-.58v-.47a.58.58,0,0,1,.58-.58h.47a.58.58,0,0,1,.58.58v.47A.58.58,0,0,1,20.61,14.17Z"/><path class="cls-2" d="M16.27,14.17H15.8a.58.58,0,0,1-.58-.58v-.47a.58.58,0,0,1,.58-.58h.47a.58.58,0,0,1,.58.58v.47A.59.59,0,0,1,16.27,14.17Z"/><path class="cls-2" d="M11.92,18h-.47a.58.58,0,0,1-.58-.58v-.47a.58.58,0,0,1,.58-.58h.47a.58.58,0,0,1,.58.58v.47A.58.58,0,0,1,11.92,18Z"/><path class="cls-2" d="M25,18h-.47a.58.58,0,0,1-.58-.58v-.47a.58.58,0,0,1,.58-.58H25a.58.58,0,0,1,.58.58v.47A.58.58,0,0,1,25,18Z"/><path class="cls-2" d="M20.61,18h-.47a.58.58,0,0,1-.58-.58v-.47a.58.58,0,0,1,.58-.58h.47a.58.58,0,0,1,.58.58v.47A.58.58,0,0,1,20.61,18Z"/><path class="cls-2" d="M16.27,18H15.8a.58.58,0,0,1-.58-.58v-.47a.58.58,0,0,1,.58-.58h.47a.58.58,0,0,1,.58.58v.47A.59.59,0,0,1,16.27,18Z"/></svg>