<svg id="Layer_1" data-name="Layer 1" xmlns="http://www.w3.org/2000/svg" viewBox="0 0 44.83 44.11">
  <defs>
    <style>
      .cls-1 {
        fill: limegreen;
      }

      .cls-2 {
        fill: #fff;
      }
    </style>
  </defs>
  <circle class="cls-1" cx="25.46" cy="23.82" r="12.84" />
  <path class="cls-2"
    d="M25.48,16.43A7.84,7.84,0,0,0,23.1,31.74V27.35h-.81c-.52,0-.74-.23-.74-.75v-1c0-.52.22-.74.74-.74h.81v-.52a3.78,3.78,0,0,1,4-4,6.24,6.24,0,0,1,1.88.21.59.59,0,0,1,.48.59,1.08,1.08,0,0,1-.07.36l-.43,1.1a.65.65,0,0,1-.59.52.39.39,0,0,1-.14,0,5.52,5.52,0,0,0-.71-.05c-.78,0-1,.43-1,1.29v.52h1.67c.52,0,.74.22.74.74v1c0,.52-.22.75-.74.75H26.44V32a7.83,7.83,0,0,0-1-15.61Z" />
</svg>