<svg id="Layer_1" data-name="Layer 1" xmlns="http://www.w3.org/2000/svg" viewBox="0 0 40.02 36.05">
  <defs>
    <style>
      .cls-1 {
        fill: limegreen;
      }

      .cls-2 {
        fill: #fff;
      }
    </style>
  </defs>
  <circle class="cls-1" cx="23.61" cy="15.07" r="12.84" />
  <path class="cls-2"
    d="M26.49,16.26a5.31,5.31,0,0,0-.56-.49.69.69,0,0,0-.43-.26l-.14,0c-.08,0-.21.08-.37.25a.35.35,0,0,1-.34.11.5.5,0,0,1-.23-.1,2.3,2.3,0,0,1-1.11-1.44.6.6,0,0,1,0-.29.58.58,0,0,1,0-.13c0-.06.1-.12.25-.18a1.38,1.38,0,0,0,.24-.14.4.4,0,0,0,.13-.26,1.09,1.09,0,0,0-.14-.45q-.45-1-.81-1a.37.37,0,0,0-.18,0c-.52.1-.81.35-.88.75a1.35,1.35,0,0,0,0,.44,7,7,0,0,0,3.33,4.38.44.44,0,0,0,.25.11,1.14,1.14,0,0,0,.66-.12,1,1,0,0,0,.57-.63A.61.61,0,0,0,26.49,16.26Z" />
  <path class="cls-2"
    d="M30.44,13.45A6.28,6.28,0,0,0,18.14,16a6.35,6.35,0,0,0,.64,1.74l-1.17,3.92,4.46-1.07a6.18,6.18,0,0,0,3.5.27A6.26,6.26,0,0,0,30.44,13.45ZM25.32,19.9a5.2,5.2,0,0,1-2.91-.23l-3.71.89,1-3.26a5.34,5.34,0,0,1-.53-1.45,5.22,5.22,0,1,1,6.18,4Z" />
</svg>