 <svg id="Layer_1" data-name="Layer 1" xmlns="http://www.w3.org/2000/svg" viewBox="0 0 42.38 44.94">
                        <defs>
                            <style>
                                .cls-1 {
                                    fill: #a70b0b;
                  }

                                .cls-2 {
                                    fill: #cfdd34;
                  }
                            </style>
                        </defs>
                        <circle class="cls-1" cx="22.33" cy="22.22" r="12.9" />
                        <path class="cls-2"
                            d="M24.06,21.57c.74-.45,1.07-.85,1.07-1.59,0-1-.76-1.67-2.11-1.67a4.93,4.93,0,0,0-2.69.85.57.57,0,0,1-.31.1A.73.73,0,0,1,19.5,19L19,18.39a.8.8,0,0,1-.21-.46.36.36,0,0,1,0-.15,1.82,1.82,0,0,1,.87-.76A7,7,0,0,1,23,16.23c2.79,0,4.63,1.34,4.63,3.76a3.1,3.1,0,0,1-1.72,2.9l-1.2.72c-.58.35-1,.64-1.12,1.28-.08.45-.17.76-.7.76H21.78c-.64,0-.68-.17-.68-.74a2.59,2.59,0,0,1,1.43-2.36Zm-.23,7.15a1.53,1.53,0,1,1-1.53-1.53A1.54,1.54,0,0,1,23.83,28.72Z" />
                    </svg>